{"accessors":[{"bufferView":2,"componentType":5126,"count":496,"max":[334.34698486328125,338.45697021484375,696.4202270507812],"min":[-334.34698486328125,-316.2430725097656,174.57424926757812],"type":"VEC3"},{"bufferView":2,"byteOffset":5952,"componentType":5126,"count":496,"max":[0.9893436431884766,0.9995646476745605,0.9994550347328186],"min":[-0.9893436431884766,-0.9991426467895508,-0.9923056364059448],"type":"VEC3"},{"bufferView":1,"componentType":5126,"count":496,"max":[-3.6347250938415527,32.47935104370117],"min":[-17.709150314331055,27.692249298095703],"type":"VEC2"},{"bufferView":0,"componentType":5125,"count":2496,"type":"SCALAR"},{"bufferView":2,"byteOffset":11904,"componentType":5126,"count":485,"max":[350.97698974609375,362.7089538574219,728.30517578125],"min":[-350.97698974609375,-322.9680480957031,248.87925720214844],"type":"VEC3"},{"bufferView":2,"byteOffset":17724,"componentType":5126,"count":485,"max":[0.9995202422142029,0.9945775866508484,0.9938874244689941],"min":[-0.9995202422142029,-0.9965410232543945,-0.7182705998420715],"type":"VEC3"},{"bufferView":1,"byteOffset":3968,"componentType":5126,"count":485,"max":[13.357919692993164,35.04374313354492],"min":[-0.3261300027370453,28.59149932861328],"type":"VEC2"},{"bufferView":0,"byteOffset":9984,"componentType":5125,"count":2520,"type":"SCALAR"},{"bufferView":2,"byteOffset":23544,"componentType":5126,"count":98,"max":[243.2209930419922,262.3619689941406,251.02316284179688],"min":[-243.2209930419922,-226.79002380371094,85.8822250366211],"type":"VEC3"},{"bufferView":2,"byteOffset":24720,"componentType":5126,"count":98,"max":[0.9996939301490784,0.9914716482162476,0.07390613108873367],"min":[-0.9996939301490784,-0.9223002195358276,-0.5430237650871277],"type":"VEC3"},{"bufferView":1,"byteOffset":7848,"componentType":5126,"count":98,"max":[2.4111900329589844,14.274699211120605],"min":[-10.328100204467773,10.252099990844727],"type":"VEC2"},{"bufferView":0,"byteOffset":20064,"componentType":5125,"count":402,"type":"SCALAR"},{"bufferView":2,"byteOffset":25896,"componentType":5126,"count":106,"max":[371.3030090332031,371.3030090332031,82.3322525024414],"min":[-371.3030090332031,-424.42401123046875,43.31113052368164],"type":"VEC3"},{"bufferView":2,"byteOffset":27168,"componentType":5126,"count":106,"max":[0.6239285469055176,0.44881293177604675,0.9981864094734192],"min":[-0.5866918563842773,-0.9739170670509338,-0.5049259662628174],"type":"VEC3"},{"bufferView":1,"byteOffset":8632,"componentType":5126,"count":106,"max":[6.484020233154297,0.9059230089187622],"min":[1.4315799474716187,-4.50793981552124],"type":"VEC2"},{"bufferView":0,"byteOffset":21672,"componentType":5125,"count":492,"type":"SCALAR"},{"bufferView":2,"byteOffset":28440,"componentType":5126,"count":98,"max":[388.4841003417969,137.23419189453125,123.9089584350586],"min":[-383.1797180175781,-492.17279052734375,20.3571834564209],"type":"VEC3"},{"bufferView":2,"byteOffset":29616,"componentType":5126,"count":98,"max":[0.8127111196517944,0.4549143612384796,0.9793851375579834],"min":[-0.8902823328971863,-0.9869905710220337,-0.527720034122467],"type":"VEC3"},{"bufferView":0,"byteOffset":23640,"componentType":5125,"count":237,"type":"SCALAR"},{"bufferView":2,"byteOffset":30792,"componentType":5126,"count":48,"max":[197.66148376464844,-144.71432495117188,197.1771697998047],"min":[155.2039031982422,-189.8108367919922,135.5127716064453],"type":"VEC3"},{"bufferView":2,"byteOffset":31368,"componentType":5126,"count":48,"max":[0.921978771686554,-0.32809245586395264,0.39301377534866333],"min":[0.383104145526886,-0.900509774684906,-0.3930954933166504],"type":"VEC3"},{"bufferView":0,"byteOffset":24588,"componentType":5125,"count":192,"type":"SCALAR"},{"bufferView":2,"byteOffset":31944,"componentType":5126,"count":455,"max":[172.19369506835938,-228.85301208496094,87.94135284423828],"min":[-171.21299743652344,-536.0194702148438,-0.1787710040807724],"type":"VEC3"},{"bufferView":2,"byteOffset":37404,"componentType":5126,"count":455,"max":[0.9495380520820618,0.9281296133995056,1],"min":[-0.9396561980247498,-0.9991724491119385,-0.7608126401901245],"type":"VEC3"},{"bufferView":1,"byteOffset":9480,"componentType":5126,"count":455,"max":[4.2393798828125,2.9972500801086426],"min":[1.2458399534225464,-1.1779099702835083],"type":"VEC2"},{"bufferView":0,"byteOffset":25356,"componentType":5125,"count":840,"type":"SCALAR"},{"bufferView":2,"byteOffset":42864,"componentType":5126,"count":389,"max":[420.7239990234375,420.7239990234375,756.9942016601562],"min":[-420.7239990234375,-519.89892578125,-6.490477085113525],"type":"VEC3"},{"bufferView":2,"byteOffset":47532,"componentType":5126,"count":389,"max":[1,1,1],"min":[-1,-1,-1],"type":"VEC3"},{"bufferView":1,"byteOffset":13120,"componentType":5126,"count":389,"max":[4.2592902183532715,7.750370025634766],"min":[-33.55540084838867,-4.5119099617004395],"type":"VEC2"},{"bufferView":0,"byteOffset":28716,"componentType":5125,"count":1200,"type":"SCALAR"},{"bufferView":2,"byteOffset":52200,"componentType":5126,"count":546,"max":[424.42401123046875,424.42401123046875,92.31024932861328],"min":[-424.42401123046875,-402.8429870605469,43.311134338378906],"type":"VEC3"},{"bufferView":2,"byteOffset":58752,"componentType":5126,"count":546,"max":[0.9964452385902405,0.9964452385902405,1],"min":[-0.9964452385902405,-0.9999231100082397,-0.6009070873260498],"type":"VEC3"},{"bufferView":1,"byteOffset":16232,"componentType":5126,"count":546,"max":[4.240200042724609,5.234710216522217],"min":[-2.2491800785064697,2.7425899505615234],"type":"VEC2"},{"bufferView":0,"byteOffset":33516,"componentType":5125,"count":1620,"type":"SCALAR"},{"bufferView":2,"byteOffset":65304,"componentType":5126,"count":310,"max":[205.8538818359375,-113.0705337524414,285.8821716308594],"min":[-103.07799530029297,-288.67962646484375,-8.449527740478516],"type":"VEC3"},{"bufferView":2,"byteOffset":69024,"componentType":5126,"count":310,"max":[0.9999988079071045,0.7061060667037964,1],"min":[-0.9997730851173401,-1,-0.9995220303535461],"type":"VEC3"},{"bufferView":1,"byteOffset":20600,"componentType":5126,"count":310,"max":[1,3.5088798999786377],"min":[-1.8574199676513672,-0.24806199967861176],"type":"VEC2"},{"bufferView":0,"byteOffset":39996,"componentType":5125,"count":1032,"type":"SCALAR"}],"asset":{"extras":{"author":"Tigerar1 (https://sketchfab.com/allanromanreyes)","license":"SKETCHFAB Standard (https://sketchfab.com/licenses)","source":"https://sketchfab.com/3d-models/toad-mushroom-house-8fd19ae8900f49ddaad3568e345bfd03","title":"Toad Mushroom House"},"generator":"Sketchfab-15.91.0","version":"2.0"},"bufferViews":[{"buffer":0,"byteLength":44124,"name":"floatBufferViews","target":34963},{"buffer":0,"byteLength":23080,"byteOffset":44124,"byteStride":8,"name":"floatBufferViews","target":34962},{"buffer":0,"byteLength":72744,"byteOffset":67204,"byteStride":12,"name":"floatBufferViews","target":34962}],"buffers":[{"byteLength":139948,"uri":"data:application/octet-stream;base64,"}],"images":[{"uri":"data:application/octet-stream;base64,"},{"uri":"data:application/octet-stream;base64,"},{"uri":"data:application/octet-stream;base64,"},{"uri":"data:application/octet-stream;base64,"},{"uri":"data:application/octet-stream;base64,"},{"uri":"data:application/octet-stream;base64,"},{"uri":"data:application/octet-stream;base64,"}],"materials":[{"doubleSided":true,"name":"KinopioHouseMat00","pbrMetallicRoughness":{"baseColorTexture":{"index":0},"metallicFactor":0,"roughnessFactor":0.8063508326896291}},{"doubleSided":true,"name":"KinopioHouseMat01","pbrMetallicRoughness":{"baseColorTexture":{"index":0},"metallicFactor":0,"roughnessFactor":0.8063508326896291}},{"doubleSided":true,"name":"KinopioHouseMat02","pbrMetallicRoughness":{"baseColorTexture":{"index":1},"metallicFactor":0,"roughnessFactor":0.8063508326896291}},{"doubleSided":true,"name":"KinopioHouseMat03","pbrMetallicRoughness":{"baseColorTexture":{"index":2},"metallicFactor":0,"roughnessFactor":0.8063508326896291}},{"doubleSided":true,"name":"KinopioHouseMat04","pbrMetallicRoughness":{"baseColorTexture":{"index":3},"metallicFactor":0,"roughnessFactor":0.8063508326896291}},{"doubleSided":true,"name":"KinopioHouseMat05","pbrMetallicRoughness":{"baseColorTexture":{"index":4},"metallicFactor":0,"roughnessFactor":0.8063508326896291}},{"doubleSided":true,"name":"KinopioHouseMat06","pbrMetallicRoughness":{"baseColorTexture":{"index":5},"metallicFactor":0,"roughnessFactor":0.8063508326896291}},{"doubleSided":true,"name":"KinopioHouseMat07","pbrMetallicRoughness":{"baseColorTexture":{"index":6},"metallicFactor":0,"roughnessFactor":0.8063508326896291}},{"doubleSided":true,"name":"KinopioHouseMat08","pbrMetallicRoughness":{"metallicFactor":0,"roughnessFactor":0.8063508326896291}},{"doubleSided":true,"name":"KinopioHouseMat09","pbrMetallicRoughness":{"metallicFactor":0,"roughnessFactor":0.8063508326896291}}],"meshes":[{"name":"Object_0","primitives":[{"attributes":{"NORMAL":1,"POSITION":0,"TEXCOORD_0":2},"indices":3,"material":0,"mode":4}]},{"name":"Object_1","primitives":[{"attributes":{"NORMAL":5,"POSITION":4,"TEXCOORD_0":6},"indices":7,"material":1,"mode":4}]},{"name":"Object_2","primitives":[{"attributes":{"NORMAL":9,"POSITION":8,"TEXCOORD_0":10},"indices":11,"material":2,"mode":4}]},{"name":"Object_3","primitives":[{"attributes":{"NORMAL":13,"POSITION":12,"TEXCOORD_0":14},"indices":15,"material":3,"mode":4}]},{"name":"Object_4","primitives":[{"attributes":{"NORMAL":17,"POSITION":16},"indices":18,"material":8,"mode":4}]},{"name":"Object_5","primitives":[{"attributes":{"NORMAL":20,"POSITION":19},"indices":21,"material":9,"mode":4}]},{"name":"Object_6","primitives":[{"attributes":{"NORMAL":23,"POSITION":22,"TEXCOORD_0":24},"indices":25,"material":4,"mode":4}]},{"name":"Object_7","primitives":[{"attributes":{"NORMAL":27,"POSITION":26,"TEXCOORD_0":28},"indices":29,"material":5,"mode":4}]},{"name":"Object_8","primitives":[{"attributes":{"NORMAL":31,"POSITION":30,"TEXCOORD_0":32},"indices":33,"material":6,"mode":4}]},{"name":"Object_9","primitives":[{"attributes":{"NORMAL":35,"POSITION":34,"TEXCOORD_0":36},"indices":37,"material":7,"mode":4}]}],"nodes":[{"children":[1],"matrix":[1,0,0,0,0,2.220446049250313e-16,-1,0,0,1,2.220446049250313e-16,0,0,0,0,1],"name":"Sketchfab_model"},{"children":[2,3,4,5,6,7,8,9,10,11],"name":"MushroomHouse.obj.cleaner.materialmerger.gles"},{"mesh":0,"name":"Object_2"},{"mesh":1,"name":"Object_3"},{"mesh":2,"name":"Object_4"},{"mesh":3,"name":"Object_5"},{"mesh":4,"name":"Object_6"},{"mesh":5,"name":"Object_7"},{"mesh":6,"name":"Object_8"},{"mesh":7,"name":"Object_9"},{"mesh":8,"name":"Object_10"},{"mesh":9,"name":"Object_11"}],"samplers":[{"magFilter":9729,"minFilter":9987,"wrapS":10497,"wrapT":10497}],"scene":0,"scenes":[{"name":"Sketchfab_Scene","nodes":[0]}],"textures":[{"sampler":0,"source":0},{"sampler":0,"source":1},{"sampler":0,"source":2},{"sampler":0,"source":3},{"sampler":0,"source":4},{"sampler":0,"source":5},{"sampler":0,"source":6}]}